<svg width="171" height="41" viewBox="0 0 171 41" fill="none" xmlns="http://www.w3.org/2000/svg">
<mask id="mask0" mask-type="alpha" maskUnits="userSpaceOnUse" x="53" y="0" width="118" height="24">
<path d="M53.7705 0.356445H170.311V23.634H53.7705V0.356445Z" fill="white"/>
</mask>
<g mask="url(#mask0)">
<path fill-rule="evenodd" clip-rule="evenodd" d="M53.7705 23.1947H65.6289V20.7479H56.5316V0.795672H53.7705V23.1947ZM66.883 3.8074H69.5183V0.795672H66.883V3.8074ZM66.883 23.1947H69.5183V6.37991H66.883V23.1947ZM73.0314 23.1947H75.6667V8.45033H78.5528V6.37991H75.6667V4.40302C75.6667 3.24247 76.2317 2.80324 77.3608 2.80324H78.5842V0.545006H76.6701C74.1298 0.545006 73.0314 1.86194 73.0314 4.40302V6.37991H70.5846V8.45033H73.0314V23.1947ZM89.909 15.1016V14.0346C89.909 10.3951 89.4384 5.94068 84.2934 5.94068C79.1169 5.94068 78.3013 10.8343 78.3013 15.0066C78.3013 20.8108 79.9954 23.634 84.1362 23.634C88.7485 23.634 89.7833 19.4617 89.7833 17.6733H87.1487C87.1487 18.9596 86.8038 21.5635 84.2934 21.5635C81.0624 21.5635 81.0624 17.7048 81.0624 15.1016H89.909ZM81.1567 13.0304V12.4034C81.1567 11.3992 81.4702 8.01111 84.2305 8.01111C86.5838 8.01111 87.1487 10.2387 87.1487 12.1205V13.0304H81.1567ZM102.206 15.5086C102.112 18.2383 101.642 21.3757 98.285 21.3757C94.4577 21.3757 93.9549 17.172 93.9549 11.9956C93.9549 6.81913 94.4577 2.61543 98.285 2.61543C101.14 2.61543 101.924 4.78014 102.018 7.32121H104.904C104.778 2.92895 102.834 0.356445 98.285 0.356445C92.1044 0.356445 91.0688 6.34848 91.0688 11.9956C91.0688 17.6419 91.9166 23.634 98.285 23.634C103.179 23.634 104.841 19.7438 105.093 15.5086H102.206ZM106.065 23.1947H108.7V11.5878C108.7 9.17165 110.613 8.19892 112.025 8.19892C114.409 8.19892 114.503 10.3015 114.503 11.5878V23.1947H117.139V11.2735C117.139 9.26593 117.17 5.94068 112.809 5.94068C111.304 5.94068 109.453 6.91342 108.763 8.29395H108.7V0.795672H106.065V23.1947ZM118.268 14.7873C118.268 19.5245 119.46 23.634 124.323 23.634C129.154 23.634 130.378 19.5245 130.378 14.7873C130.378 10.0501 129.185 5.94068 124.323 5.94068C119.46 5.94068 118.268 10.0501 118.268 14.7873ZM124.259 21.5635C121.563 21.5635 121.028 18.4268 121.028 14.7873C121.028 11.1478 121.593 8.01111 124.259 8.01111C127.115 8.01111 127.617 11.1478 127.617 14.7873C127.617 18.4268 127.052 21.5635 124.259 21.5635ZM131.035 3.8074H133.671V0.795672H131.035V3.8074ZM131.035 23.1947H133.671V6.37991H131.035V23.1947ZM146.407 11.4935C146.407 9.57945 145.654 5.94068 141.043 5.94068C135.866 5.94068 135.051 10.8343 135.051 15.0066C135.051 20.8108 136.745 23.634 140.886 23.634C145.09 23.634 146.407 19.9952 146.407 17.3598H143.772C143.772 19.1796 143.27 21.5635 141.011 21.5635C137.843 21.5635 137.812 17.1406 137.812 14.9751C137.812 8.82671 139.475 8.01111 141.105 8.01111C143.113 8.01111 143.772 9.86155 143.772 11.4935H146.407ZM158.673 15.1016V14.0346C158.673 10.3951 158.202 5.94068 153.057 5.94068C147.881 5.94068 147.065 10.8343 147.065 15.0066C147.065 20.8108 148.76 23.634 152.901 23.634C157.513 23.634 158.548 19.4617 158.548 17.6733H155.913C155.913 18.9596 155.567 21.5635 153.057 21.5635C149.826 21.5635 149.826 17.7048 149.826 15.1016H158.673ZM149.921 13.0304V12.4034C149.921 11.3992 150.234 8.01111 152.995 8.01111C155.348 8.01111 155.913 10.2387 155.913 12.1205V13.0304H149.921ZM169.904 11.3049C169.904 9.32879 169.684 5.94068 164.79 5.94068C161.873 5.94068 159.425 7.44617 159.425 10.5836C159.425 14.0346 161.528 14.6616 163.566 15.3523C165.575 16.0107 167.677 16.5128 167.677 18.7718C167.677 21.1557 165.731 21.5635 164.884 21.5635C162.28 21.5635 161.747 19.7123 161.747 17.6733H159.112C159.112 19.3988 159.175 23.634 164.884 23.634C168.022 23.634 170.311 21.877 170.311 18.364C170.311 15.0066 168.21 14.2852 166.202 13.6268C164.131 12.9676 162.061 12.5912 162.061 10.5836C162.061 8.23035 163.943 8.01111 164.79 8.01111C166.703 8.01111 167.268 9.17165 167.268 11.3049H169.904Z" fill="black"/>
</g>
<mask id="mask1" mask-type="alpha" maskUnits="userSpaceOnUse" x="0" y="0" width="54" height="24">
<path d="M0 0.795654H53.1118V23.6339H0V0.795654Z" fill="white"/>
</mask>
<g mask="url(#mask1)">
<path fill-rule="evenodd" clip-rule="evenodd" d="M5.67852 23.1947H10.9492V14.3795L16.627 0.795654H10.9799L8.40816 9.10953H8.3453L5.8349 0.795654H0L5.67852 14.3795V23.1947ZM20.7372 23.6339C26.6035 23.6339 27.7326 19.7438 27.7326 14.6616C27.7326 9.57944 26.917 5.78353 20.7372 5.78353C14.8708 5.78353 13.741 9.67372 13.741 14.7559C13.741 19.838 14.5252 23.6339 20.7372 23.6339ZM22.6505 14.7244C22.6505 18.8967 22.3369 20.3087 20.7686 20.3087C19.2624 20.3087 18.8231 18.8339 18.8231 14.693C18.8231 10.5836 19.2624 9.10953 20.7686 9.10953C22.3369 9.10953 22.6505 10.5207 22.6505 14.7244ZM41.9435 6.22276H36.8614V17.3284C36.8614 18.991 36.0151 19.7438 35.0416 19.7438C34.0696 19.7438 33.5675 19.0224 33.5675 17.799V6.22276H28.4854V18.9282C28.4854 22.1905 30.023 23.6339 32.9091 23.6339C34.7909 23.6339 36.2657 22.6926 36.9871 21.1871H37.0499V23.1947H41.9435V6.22276ZM43.2612 23.1947H48.3433V13.5639C48.3433 11.3049 49.661 10.4893 51.7 10.4893C52.2021 10.4893 52.6099 10.5207 53.112 10.615V5.84639C52.9548 5.81496 52.7985 5.78353 52.672 5.78353H52.2964C50.1631 5.78353 48.8768 7.10121 48.2184 8.60745H48.1555V6.22276H43.2612V23.1947Z" fill="#ED1B33"/>
</g>
<path fill-rule="evenodd" clip-rule="evenodd" d="M51.9793 32.8623C52.0623 34.0812 51.7263 34.9866 50.999 35.5276C49.6387 36.5385 47.1837 37.4543 45.0758 36.7113C44.7638 36.2818 44.7279 35.2963 45.2674 35.3031C45.7972 35.3098 45.4545 35.9593 45.8226 36.1583C46.606 36.3521 47.2383 36.1007 47.8182 35.9615C48.2672 35.853 48.7101 35.8665 49.0573 35.7229C49.5983 35.5006 49.932 34.9596 50.5015 34.8878C50.8052 34.4905 51.1943 34.1755 51.1248 33.4175C50.5793 32.8174 49.6799 33.1481 48.9571 33.0778C48.7273 33.0546 48.4849 32.9027 48.2507 32.8735C47.6888 32.8024 47.3752 32.8623 46.9495 32.6258C46.7774 32.53 46.5858 32.3295 46.4018 32.2031C46.1683 32.0429 45.8847 31.9299 45.8009 31.8357C44.8701 30.7814 45.7844 29.2647 46.499 28.473C47.3857 28.0083 48.1534 27.2271 49.7203 27.2818C50.491 27.3087 52.0234 27.5863 52.1139 28.2126C52.1536 28.4827 51.9523 28.8179 51.6927 28.8149C51.1375 28.8067 51.2856 28.3847 50.9257 28.2336C50.6234 28.1063 49.9777 28.1019 49.5197 28.1497C49.3664 28.1662 49.2212 28.2859 49.0364 28.3204C48.883 28.3495 48.7101 28.2852 48.55 28.3286C48.0322 28.4715 47.1395 29.1307 46.8417 29.5475C46.6988 29.748 46.3666 30.3623 46.3741 30.637C46.3928 31.2438 47.043 31.7279 47.4777 31.9142C47.8661 32.0811 48.669 32.2719 49.2137 32.316C50.3593 32.4103 51.5842 32.0953 51.9793 32.8623Z" fill="#ED1B33"/>
<path fill-rule="evenodd" clip-rule="evenodd" d="M80.366 27.6659C80.2036 28.3213 79.5115 27.9158 79.0745 27.9584C77.8683 28.0759 77.3879 29.309 77.1193 30.4786C77.5877 30.7966 78.9181 30.1456 79.5526 30.5975C79.6057 31.6099 77.6019 31.0824 77.0317 31.6683C76.7571 33.0279 76.835 34.3396 76.8888 35.8316C76.9 36.1713 77.0864 36.5544 76.7968 36.8066C75.8742 36.9412 75.9991 35.8031 75.9557 35.0377C75.8921 33.9123 75.9258 32.7241 75.8458 31.7977C75.31 31.6144 74.9157 32.2138 74.3904 32.0394C73.9108 30.8422 75.6527 31.3173 76.0957 30.6581C76.3478 30.2833 76.2805 29.5769 76.5005 29.0846C76.6052 28.8489 76.8537 28.5997 77.0273 28.3183C77.1926 28.0497 77.3056 27.6891 77.5002 27.5536C77.9753 27.2236 78.5485 27.4055 79.1126 27.0388C79.4815 27.2985 80.0218 27.3808 80.366 27.6659Z" fill="#ED1B33"/>
<path fill-rule="evenodd" clip-rule="evenodd" d="M71.344 27.7687C71.3672 28.9248 71.2415 30.0741 71.1884 31.2302C71.1832 31.3349 71.1607 31.495 71.1405 31.6088C70.9609 32.6204 70.6347 33.9448 70.604 34.9146C70.5861 35.4638 70.7709 36.9117 70.3167 37.0276C69.525 37.2282 69.7495 34.6863 69.8348 34.1715C69.9628 33.3986 70.2853 32.6825 70.2291 32.0031C70.2127 31.81 70.0608 31.4778 70.0563 31.412C70.0428 31.1987 70.1917 30.9398 70.2052 30.6525C70.2508 29.7 70.1693 28.3359 70.4783 27.7298C70.5988 27.414 71.234 27.5727 71.344 27.7687Z" fill="#ED1B33"/>
<path fill-rule="evenodd" clip-rule="evenodd" d="M54.0172 28.882C54.0478 29.1835 53.8982 29.7073 53.6004 29.7544C52.7376 29.8906 53.1784 28.311 54.0172 28.882Z" fill="#ED1B33"/>
<path fill-rule="evenodd" clip-rule="evenodd" d="M117.548 27.8269C117.445 28.1996 117.414 28.6081 117.076 28.6463C116.167 28.7465 116.816 27.0922 117.548 27.8269Z" fill="#ED1B33"/>
<path fill-rule="evenodd" clip-rule="evenodd" d="M114.507 30.0958C114.86 30.1093 115.165 29.8489 115.425 30.0801C115.672 30.8823 114.971 30.7012 114.578 31.0132C114.257 31.2661 114.36 31.6215 114.329 32.2606C114.319 32.4603 114.162 32.8532 114.129 33.1824C114.028 34.1649 114.413 35.731 113.906 35.8881C113.148 36.1231 113.211 35.0111 113.23 34.3332C113.258 33.3059 113.313 32.0481 113.178 31.3619C112.646 31.3709 111.982 31.3619 112.084 30.5702C112.24 30.3143 112.68 30.3316 113.107 30.336C113.74 29.8153 113.386 28.3397 113.98 27.7815C115.18 27.9461 113.989 29.4374 114.507 30.0958Z" fill="#ED1B33"/>
<path fill-rule="evenodd" clip-rule="evenodd" d="M153.079 29.4227C153.411 29.3957 153.8 29.169 153.999 29.4601C153.948 30.3587 153.646 29.9996 153.149 30.34C152.699 30.6476 152.834 31.0262 152.741 31.752C152.685 32.1987 152.459 32.7853 152.447 33.4326C152.426 34.4345 152.426 35.9086 151.498 34.8543C151.51 33.4131 151.659 32.1044 151.751 30.7426C151.285 30.6094 150.456 30.7942 150.601 29.8986C150.742 29.5731 151.392 29.7414 151.731 29.6082C152.292 29.2386 152.039 27.1525 152.715 27.1053C153.77 27.032 152.584 28.949 153.079 29.4227Z" fill="#ED1B33"/>
<path fill-rule="evenodd" clip-rule="evenodd" d="M74.174 28.908C74.0476 29.2514 74.0191 29.6772 73.7019 29.7273C72.777 29.874 73.3906 28.165 74.174 28.908Z" fill="#ED1B33"/>
<path fill-rule="evenodd" clip-rule="evenodd" d="M86.652 28.637C86.7066 28.9662 86.5345 29.5072 86.1813 29.5102C85.4024 29.5154 85.9037 28.1087 86.652 28.637Z" fill="#ED1B33"/>
<path fill-rule="evenodd" clip-rule="evenodd" d="M108.823 32.6269C109.209 32.4279 110.204 31.5846 110.313 31.2501C110.517 30.6216 110.202 30.0327 109.643 30.0185C109.292 30.0102 108.623 30.4061 108.357 30.6358C107.813 31.1027 107.446 32.151 107.368 32.814C107.747 33.004 108.422 32.8342 108.823 32.6269ZM107.493 33.7844C106.9 34.2723 107.398 35.0759 107.895 35.1822C108.536 35.3191 109.339 34.9255 109.885 34.6075C110.497 34.2514 111.037 33.3415 111.655 33.8735C111.477 34.9502 110.46 35.3146 109.473 35.7501C109.059 35.9319 108.512 36.223 108.238 36.2574C107.45 36.3562 106.361 35.6798 106.216 34.942C106.076 34.2259 106.281 33.3609 106.447 32.6688C106.549 32.243 106.543 31.8016 106.643 31.5299C106.741 31.2628 107.037 30.9792 107.223 30.7091C107.44 30.3941 107.634 30.0447 107.803 29.8883C108.279 29.4498 109.246 28.8781 110.004 29.039C110.632 29.1729 111.509 29.8516 111.492 30.7428C111.477 31.5719 110.633 32.3725 109.962 32.8768C109.2 33.4507 108.606 33.7575 107.493 33.7844Z" fill="#ED1B33"/>
<path fill-rule="evenodd" clip-rule="evenodd" d="M106.617 30.0714C105.621 30.0999 105.35 30.1306 104.682 30.6461C104.185 31.0285 103.431 32.0947 103.261 32.8325C103.062 33.6953 103.428 36.0373 102.672 36.1929C101.559 36.4204 102.208 34.2826 102.245 33.4446C102.258 33.146 102.179 32.8594 102.176 32.5811C102.17 32.0483 102.332 31.5994 102.368 31.226C102.441 30.48 102.318 29.6898 102.773 29.5985C103.346 29.4833 103.584 30.3655 103.335 30.8855C103.86 30.2308 105.724 28.5016 106.617 30.0714Z" fill="#ED1B33"/>
<path fill-rule="evenodd" clip-rule="evenodd" d="M126.2 31.2427C126.803 29.5613 124.819 30.1801 124.298 30.6815C123.782 31.1791 123.513 32.0523 123.469 32.6958C124.177 33.0115 125.974 31.8704 126.2 31.2427ZM126.469 34.2649C126.551 34.9967 125.954 35.2219 125.248 35.5287C124.829 35.7098 124.472 35.9507 124.229 35.9784C122.963 36.122 122.242 34.9488 122.297 33.6348C122.384 31.5749 123.505 29.7985 125.083 29.1543C127.124 28.9695 127.81 30.4907 127.018 31.6609C126.594 32.2865 125.157 33.4283 124.35 33.5989C123.799 33.7149 123.221 33.4074 123.279 34.2117C123.307 34.5829 123.696 34.9024 123.995 34.9563C124.982 35.1328 125.545 34.1639 126.469 34.2649Z" fill="#ED1B33"/>
<path fill-rule="evenodd" clip-rule="evenodd" d="M141.393 31.734C141.835 31.3793 142.272 31.0471 142.126 30.4238C141.903 29.4675 140.672 30.1851 140.183 30.5659C139.854 31.1331 139.481 31.6584 139.352 32.4179C140.09 32.8347 140.943 32.0954 141.393 31.734ZM139.53 33.3869C138.904 33.7468 139.392 34.5901 139.931 34.6776C141.101 34.8684 142.116 33.526 142.775 33.547C142.83 34.4636 141.732 34.9567 140.808 35.3645C140.526 35.4887 140.33 35.6818 140.111 35.7012C139.311 35.7745 138.68 35.173 138.308 34.5437C138.289 33.3891 138.342 32.2084 138.683 31.2947C138.788 31.0156 139.109 30.7171 139.317 30.4193C139.869 29.6239 140.589 28.9205 141.94 29.0223C142.841 29.3957 143.55 30.2711 142.953 31.3284C142.555 32.0325 141.089 33.2035 140.286 33.3741C140.027 33.4295 139.69 33.3435 139.53 33.3869Z" fill="#ED1B33"/>
<path fill-rule="evenodd" clip-rule="evenodd" d="M122.778 30.2221C121.889 30.2543 121.539 30.249 120.95 30.7399C120.697 30.9494 119.941 31.8915 119.74 32.6524C119.524 33.468 119.88 35.6934 119.146 35.7974C118.064 35.95 118.765 33.5212 118.771 32.8313C118.771 32.7572 118.656 32.3756 118.652 32.2933C118.628 31.7755 118.744 29.6482 119.199 29.5816C119.624 29.5202 119.838 30.0538 119.865 30.5424C120.377 29.8487 122.313 28.6545 122.778 30.2221Z" fill="#ED1B33"/>
<path fill-rule="evenodd" clip-rule="evenodd" d="M133.834 32.1363C134.36 31.4143 134.714 29.9484 135.793 29.7778C137.351 29.5317 137.711 31.6111 137.744 33.2026C137.755 33.7421 137.797 34.4642 137.502 34.8286C136.417 34.8338 136.859 33.3171 136.753 32.1932C136.699 31.6096 136.603 30.6518 136.132 30.583C135.507 30.4909 134.941 31.6612 134.806 32.0114C134.706 32.2643 134.735 32.5628 134.657 32.824C134.503 33.3403 134.227 33.8356 134.089 34.3474C133.937 34.9139 133.976 35.5491 133.576 35.9233C132.856 35.9547 133.023 35.083 133.012 34.5278C132.993 33.6501 132.929 32.0458 132.628 31.1299C132.509 30.7678 132.155 29.9866 131.743 29.9574C130.88 29.8946 130.119 31.6597 129.839 32.3137C129.691 32.6586 129.493 32.9662 129.421 33.1861C129.189 33.9037 129.231 34.7328 128.864 35.303C128.609 35.4167 128.204 35.3681 128.053 35.2094C127.973 34.4043 128.169 33.4361 128.324 32.1782C128.422 31.3791 128.421 29.5167 129.032 29.4636C129.676 29.4082 129.53 30.2956 129.491 30.9152C130.239 30.4393 130.809 28.7467 132.436 29.4045C133.32 29.7614 133.612 30.9653 133.834 32.1363Z" fill="#ED1B33"/>
<path fill-rule="evenodd" clip-rule="evenodd" d="M66.1943 36.1805C66.5191 36.1842 67.2232 35.742 67.4798 35.51C67.9722 35.0641 68.4294 34.1968 68.4182 33.5481C68.4054 32.835 67.8787 31.4515 67.1918 31.4081C66.2654 31.349 65.8898 32.74 65.6077 33.489C65.3945 34.0539 64.8946 34.8097 65.2134 35.7113C65.6908 35.7779 65.7611 36.1752 66.1943 36.1805ZM65.4147 31.7628C65.8793 31.6445 66.0933 30.9966 66.5872 30.8237C68.1219 30.288 69.0474 31.7777 69.3273 32.9914C69.111 33.3917 69.1769 33.8975 69.0272 34.4019C68.7264 35.4232 67.4701 36.6481 66.6919 36.8202C65.9639 36.9819 65.4581 36.6384 65.1191 36.4693C64.7554 37.0941 65.0809 39.9405 64.4846 40.3715C64.1666 40.6019 63.7663 40.477 63.5635 40.2255C63.8321 38.102 63.9975 35.9208 64.2077 33.7838C64.2332 33.5189 64.3813 33.2795 64.4105 33.0228C64.4936 32.2903 64.1696 31.435 64.5325 30.7519C65.0854 30.4331 65.5067 31.0624 65.4147 31.7628Z" fill="#ED1B33"/>
<path fill-rule="evenodd" clip-rule="evenodd" d="M53.7361 31.3728C53.6179 33.3332 53.3261 35.1163 53.237 36.8395C52.8532 37.0386 52.4888 36.7812 52.3144 36.5851C52.2082 35.7845 52.4162 34.8103 52.5397 34.0411C52.6676 33.2494 52.5307 32.4076 52.61 31.8786C52.6915 31.3369 53.252 30.647 53.7361 31.3728Z" fill="#ED1B33"/>
<path fill-rule="evenodd" clip-rule="evenodd" d="M117.156 30.1035C117.367 32.1448 116.648 33.4774 116.873 35.5665C116.778 35.6174 116.707 35.6908 116.66 35.7865C116.246 35.8479 116.043 35.6923 115.845 35.5299C115.643 34.4255 116.059 33.1602 116.163 32.0662C116.247 31.1668 115.919 29.4638 117.156 30.1035Z" fill="#ED1B33"/>
<path fill-rule="evenodd" clip-rule="evenodd" d="M149.069 35.0043C148.741 35.0514 148.53 34.9774 148.365 34.8546C148.213 33.8632 148.721 32.6548 148.794 31.605C148.832 31.0707 148.853 30.3554 148.442 30.0434C147.584 30.3644 146.938 31.1635 146.313 31.8646C145.702 32.5493 145.024 33.311 144.732 34.1618C144.574 34.6219 144.68 35.2767 143.942 35.3103C143.565 35.0604 143.608 34.2209 143.918 33.9597C143.942 33.4412 144.11 32.7947 144.26 31.9544C144.37 31.3453 144.404 30.2042 144.769 30.1077C145.415 29.9386 145.443 30.8866 145.28 31.4501C146.07 31.07 147.682 28.5805 149.138 29.5996C149.575 29.9064 149.602 30.5963 149.815 31.263C149.497 32.4423 149.557 33.9882 149.069 35.0043Z" fill="#ED1B33"/>
<path fill-rule="evenodd" clip-rule="evenodd" d="M80.7986 30.7383C80.6384 32.1712 80.4297 34.1555 81.3096 35.2689C81.8169 34.8357 82.6206 34.4272 82.9535 33.4567C83.2446 32.6066 83.0299 29.868 84.4216 30.8916C84.4598 32.02 83.8522 33.4065 83.7819 34.4691C83.7594 34.8028 83.8208 35.1283 83.7998 35.4957C83.7497 36.3502 83.5409 37.1688 83.5177 37.932C83.4968 38.6353 83.5671 39.4337 82.6812 39.5138C82.4926 38.2769 82.8151 36.321 82.9281 35.0789C82.3946 35.3961 81.8439 36.6023 80.6766 36.1444C80.1857 35.2929 79.6156 34.4272 79.7076 33.2434C79.7256 33.0115 79.9074 32.7713 79.9111 32.5371C79.9141 32.353 79.7577 32.1951 79.7398 31.9998C79.6986 31.5464 79.9283 31.1124 80.0421 30.7517C80.3107 30.6455 80.4858 30.7525 80.7986 30.7383Z" fill="#ED1B33"/>
<path fill-rule="evenodd" clip-rule="evenodd" d="M95.7805 31.5037C94.8669 31.7798 93.5754 32.9523 93.2275 33.818C92.7232 35.0713 93.5665 35.3123 94.4928 35.0923C95.2627 34.909 95.4401 34.6299 95.9893 34.1472C96.4906 33.7073 96.8431 33.384 96.9927 32.8333C97.1027 32.7794 97.2045 32.7188 97.3145 32.6657C97.3122 32.3799 97.2352 32.0229 97.5734 32.0663C97.3205 31.357 96.5408 31.2739 95.7805 31.5037ZM98.493 32.1045C98.3067 32.3178 98.1937 32.3439 97.9033 32.3851C97.9131 34.1383 97.426 37.0767 96.5482 38.2986C96.4457 38.4407 96.2415 38.5388 96.1217 38.6847C95.6982 39.2017 94.7622 40.1131 93.7707 40.1842C93.205 40.2261 92.5039 39.9949 92.7284 39.284C93.0165 39.0999 93.2874 39.3491 93.4871 39.4329C94.7038 39.0498 95.4835 38.2447 96.2078 37.3864C96.3747 36.6442 96.5176 35.8795 96.6545 35.1088C95.9669 35.2494 94.9073 36.1563 93.9159 36.1294C93.2567 36.1107 92.8406 35.6999 92.4418 35.236C92.064 32.7487 93.9077 30.822 96.3575 30.4666C97.4753 30.3042 98.6 30.7749 98.493 32.1045Z" fill="#ED1B33"/>
<path fill-rule="evenodd" clip-rule="evenodd" d="M59.9366 33.6423C60.3923 32.8551 61.3523 30.7817 62.7156 31.8644C63.2364 32.2775 63.4287 33.7126 63.4683 34.7692C63.4886 35.3079 63.4945 35.8556 63.2768 36.1781C61.8102 36.1198 63.1481 32.9666 62.0212 32.3628C60.3601 33.0953 60.5965 35.6611 59.7271 37.1591C59.3312 37.2152 59.1636 36.8186 59.1225 36.5201C58.9062 34.969 59.3799 32.4234 58.0667 31.7829C57.6132 31.9774 56.9705 32.4862 56.6847 33.1043C56.4632 33.5832 56.0883 34.327 55.9566 34.7385C55.6917 35.5661 55.8219 37.2624 54.6906 36.4902C54.6389 35.8332 54.8222 34.9181 54.9674 33.783C55.0662 33.01 54.9958 31.3616 55.682 31.393C56.208 31.4162 56.0793 31.9527 56.0801 32.5207C56.7296 32.0732 57.3169 30.8184 58.5972 31.2337C59.4697 31.5165 59.7069 32.5775 59.9366 33.6423Z" fill="#ED1B33"/>
<path fill-rule="evenodd" clip-rule="evenodd" d="M73.8375 31.292C73.7171 32.0336 73.8114 32.811 73.7148 33.5637C73.655 34.0314 73.4522 34.4781 73.4148 34.9196C73.3579 35.5803 73.6018 36.2515 73.3392 36.8127C72.9524 36.9982 72.5491 36.761 72.4151 36.5044C72.3567 35.6925 72.5281 34.7864 72.6426 34.0681C72.8326 32.8836 72.4248 30.2924 73.8375 31.292Z" fill="#ED1B33"/>
<path fill-rule="evenodd" clip-rule="evenodd" d="M86.3176 31.1284C86.2263 33.0095 85.6883 34.6691 85.7085 36.4889C85.6315 36.5211 85.5784 36.5757 85.5492 36.6543C85.3307 36.682 84.9865 36.6416 84.8443 36.5039C84.4717 36.1402 84.7912 35.0433 84.8608 34.3414C84.9049 33.8925 85.0972 33.4031 85.1601 32.9324C85.2746 32.0727 85.0269 30.9466 85.7175 30.8149C86.0759 30.746 86.1994 31.0132 86.3176 31.1284Z" fill="#ED1B33"/>
<path fill-rule="evenodd" clip-rule="evenodd" d="M91.9723 36.217C91.7508 36.3853 91.3333 36.3531 91.1612 36.1773C90.9352 34.6928 92.0816 32.7675 91.1866 31.476C90.2872 31.6982 89.7081 32.5542 89.1102 33.2404C88.4735 33.9729 87.8404 34.6785 87.5823 35.4829C87.4192 35.9925 87.4244 36.6906 86.8999 36.63C86.7023 36.6075 86.4921 36.3023 86.5093 35.8802C86.5168 35.6632 86.7053 35.4552 86.7674 35.227C86.8902 34.7781 86.9358 33.9789 87.057 33.2224C87.1595 32.5782 87.2336 31.5576 87.5666 31.4842C88.0859 31.3705 88.2774 32.1008 88.0769 32.8266C88.8087 32.546 89.3429 31.3234 90.2596 30.9515C91.9544 30.2623 92.6031 31.7536 92.4085 33.3451C92.2918 34.3067 92.0284 35.2824 91.9723 36.217Z" fill="#ED1B33"/>
</svg>
