<svg width="29" height="29" viewBox="0 0 29 29" fill="none" xmlns="http://www.w3.org/2000/svg">
<path d="M26.3453 28.2806H14.6748C14.3526 28.2806 14.0913 28.0194 14.0913 27.6971V18.9442H15.2584V27.1136H25.7618V18.9442H26.9288V27.6971C26.9288 28.0194 26.6676 28.2806 26.3453 28.2806Z" fill="#25282B"/>
<path d="M27.5124 20.1112C27.4222 20.1122 27.3329 20.0922 27.2516 20.0529L20.5102 16.6789L13.7687 20.0529C13.5873 20.1435 13.3719 20.1335 13.1997 20.0264C13.0275 19.9193 12.9232 19.7305 12.9243 19.5277V17.1936C12.9243 16.9724 13.0492 16.7702 13.247 16.6713L20.2493 13.1702C20.4135 13.0881 20.6068 13.0881 20.771 13.1702L27.7733 16.6713C27.9711 16.7702 28.096 16.9724 28.096 17.1936V19.5277C28.096 19.85 27.8347 20.1112 27.5124 20.1112ZM20.5102 15.443C20.6007 15.4429 20.69 15.4639 20.771 15.5043L26.9289 18.5835V17.5542L20.5102 14.3448L14.0914 17.5542V18.5835L20.2493 15.5043C20.3303 15.4639 20.4196 15.4429 20.5102 15.443Z" fill="#25282B"/>
<path d="M25.1787 27.697H24.0116V21.2783H17.0093V27.697H15.8423V20.6947C15.8423 20.3725 16.1035 20.1112 16.4258 20.1112H24.5952C24.9174 20.1112 25.1787 20.3725 25.1787 20.6947V27.697Z" fill="#25282B"/>
<path d="M24.5951 22.4454H16.4258V23.6125H24.5951V22.4454Z" fill="#25282B"/>
<path d="M24.5951 24.7795H16.4258V25.9466H24.5951V24.7795Z" fill="#25282B"/>
<path d="M14.675 28.2806H0.670438C0.348167 28.2806 0.0869141 28.0193 0.0869141 27.697V5.5231C0.0869141 5.20083 0.348167 4.93958 0.670438 4.93958H14.675C14.9973 4.93958 15.2585 5.20083 15.2585 5.5231V16.6101H14.0915V6.10662H1.25396V27.1135H14.675V28.2806Z" fill="#25282B"/>
<path d="M14.675 7.2738H0.67041V8.44085H14.675V7.2738Z" fill="#25282B"/>
<path d="M6.5056 6.10674H5.33855V3.77264H3.00445V5.52321H1.8374V3.18912C1.8374 2.86684 2.09866 2.60559 2.42093 2.60559H5.92207C6.24434 2.60559 6.5056 2.86684 6.5056 3.18912V6.10674Z" fill="#25282B"/>
<path d="M6.50563 3.77263H1.83743C1.51516 3.77263 1.25391 3.51138 1.25391 3.18911V0.855009C1.25391 0.532737 1.51516 0.271484 1.83743 0.271484H6.50563C6.8279 0.271484 7.08915 0.532737 7.08915 0.855009V3.18911C7.08915 3.51138 6.8279 3.77263 6.50563 3.77263ZM2.42096 2.60558H5.9221V1.43853H2.42096V2.60558Z" fill="#25282B"/>
<path d="M6.506 13.6926H4.1719C3.84963 13.6926 3.58838 13.4313 3.58838 13.109V10.7749C3.58838 10.4527 3.84963 10.1914 4.1719 10.1914H6.506C6.82827 10.1914 7.08953 10.4527 7.08953 10.7749V13.109C7.08953 13.4313 6.82827 13.6926 6.506 13.6926ZM4.75543 12.5255H5.92248V11.3585H4.75543V12.5255Z" fill="#25282B"/>
<path d="M11.1735 13.6926H8.83938C8.51711 13.6926 8.25586 13.4313 8.25586 13.109V10.7749C8.25586 10.4527 8.51711 10.1914 8.83938 10.1914H11.1735C11.4958 10.1914 11.757 10.4527 11.757 10.7749V13.109C11.757 13.4313 11.4958 13.6926 11.1735 13.6926ZM9.42291 12.5255H10.59V11.3585H9.42291V12.5255Z" fill="#25282B"/>
<path d="M11.1735 18.3608H8.83938C8.51711 18.3608 8.25586 18.0995 8.25586 17.7772V15.4431C8.25586 15.1209 8.51711 14.8596 8.83938 14.8596H11.1735C11.4958 14.8596 11.757 15.1209 11.757 15.4431V17.7772C11.757 18.0995 11.4958 18.3608 11.1735 18.3608ZM9.42291 17.1937H10.59V16.0267H9.42291V17.1937Z" fill="#25282B"/>
<path d="M6.506 18.3608H4.1719C3.84963 18.3608 3.58838 18.0995 3.58838 17.7772V15.4431C3.58838 15.1209 3.84963 14.8596 4.1719 14.8596H6.506C6.82827 14.8596 7.08953 15.1209 7.08953 15.4431V17.7772C7.08953 18.0995 6.82827 18.3608 6.506 18.3608ZM4.75543 17.1937H5.92248V16.0267H4.75543V17.1937Z" fill="#25282B"/>
<path d="M11.7577 27.697H10.5907V21.2783H4.75543V27.697H3.58838V20.6947C3.58838 20.3725 3.84963 20.1112 4.1719 20.1112H11.1742C11.4965 20.1112 11.7577 20.3725 11.7577 20.6947V27.697Z" fill="#25282B"/>
<path d="M25.7619 7.27367H21.0937C19.9079 7.27523 18.9095 6.38753 18.7722 5.20977C18.6349 4.03201 19.4025 2.93848 20.5568 2.66733C20.8082 1.27905 22.0169 0.269531 23.4278 0.269531C24.8386 0.269531 26.0473 1.27905 26.2987 2.66733C27.453 2.93848 28.2206 4.03201 28.0834 5.20977C27.9461 6.38753 26.9476 7.27523 25.7619 7.27367ZM23.4278 1.43842C22.461 1.43842 21.6772 2.22218 21.6772 3.189C21.6772 3.51127 21.4159 3.77252 21.0937 3.77252C20.4491 3.77252 19.9266 4.29503 19.9266 4.93957C19.9266 5.58411 20.4491 6.10662 21.0937 6.10662H25.7619C26.4064 6.10662 26.9289 5.58411 26.9289 4.93957C26.9289 4.29503 26.4064 3.77252 25.7619 3.77252C25.4396 3.77252 25.1783 3.51127 25.1783 3.189C25.1783 2.22218 24.3946 1.43842 23.4278 1.43842Z" fill="#25282B"/>
<path d="M17.5094 12.5254H15.8423V11.3584H17.5094C17.9167 11.3125 18.2129 10.9497 18.1764 10.5414C18.2129 10.1332 17.9167 9.77044 17.5094 9.72451C17.1871 9.72451 16.9259 9.46326 16.9259 9.14099C16.9755 8.48907 16.4933 7.91777 15.8423 7.85723V6.69019C16.9508 6.72803 17.876 7.54837 18.0463 8.64441C18.84 8.9341 19.3614 9.6967 19.3434 10.5414C19.3819 11.5947 18.5624 12.4812 17.5094 12.5254Z" fill="#25282B"/>
</svg>
