<svg width="15" height="19" viewBox="0 0 15 19" fill="none" xmlns="http://www.w3.org/2000/svg">
<path fill-rule="evenodd" clip-rule="evenodd" d="M7.64494 11.8635C7.64494 12.2443 7.3334 12.5558 6.95263 12.5558C6.57186 12.5558 6.26032 12.2443 6.2602 11.8635V2.79427L3.86021 5.10197C3.58329 5.36733 3.14485 5.3558 2.87946 5.07888C2.6141 4.80196 2.62562 4.36353 2.90255 4.09812L6.35256 0.786576C6.42179 0.671204 6.52564 0.567353 6.65257 0.509652C6.91797 0.301957 7.28722 0.313523 7.54105 0.532738L11.5218 4.07504C11.8103 4.32887 11.8334 4.76734 11.5795 5.05579C11.4411 5.20582 11.2565 5.28658 11.0603 5.28658C10.8988 5.28658 10.7257 5.22887 10.5988 5.1135L7.64494 2.48273V11.8635ZM10.4949 7.3635H13.4257C13.8065 7.3635 14.1065 7.70965 14.1065 8.09042V17.6904C14.1065 18.0712 13.8065 18.325 13.4257 18.325H0.710324C0.329555 18.325 0.029541 18.0712 0.029541 17.6904V8.09042C0.029541 7.70965 0.329555 7.3635 0.710324 7.3635H3.87185C4.25262 7.3635 4.56416 7.67503 4.56416 8.0558C4.56416 8.43657 4.25262 8.74811 3.87185 8.74811H1.41416V16.9404H12.7218V8.74811H10.4949C10.1141 8.74811 9.8026 8.43657 9.8026 8.0558C9.8026 7.67503 10.1141 7.3635 10.4949 7.3635Z" fill="black" fill-opacity="0.84"/>
</svg>
