<svg width="29" height="29" viewBox="0 0 29 29" fill="none" xmlns="http://www.w3.org/2000/svg">
<path d="M28.4163 27.1135H1.57275V28.2806H28.4163V27.1135Z" fill="#25282B"/>
<path d="M24.3314 27.6971H23.1643V22.4451H12.6603V27.6971H11.4932V21.8615C11.4932 21.5392 11.7544 21.278 12.0767 21.278H23.7478C24.0701 21.278 24.3314 21.5392 24.3314 21.8615V27.6971Z" fill="#25282B"/>
<path d="M23.7478 22.4451H22.5807V1.79768L13.2438 6.46612V22.4451H12.0767V6.10549C12.0767 5.8843 12.2015 5.68207 12.3994 5.5832L22.9034 0.331199C23.0843 0.240784 23.2992 0.250515 23.4712 0.356916C23.6432 0.463317 23.7478 0.651211 23.7478 0.853482V22.4451Z" fill="#25282B"/>
<path d="M16.7454 10.7739H14.4112C14.0889 10.7739 13.8276 10.5127 13.8276 10.1904V7.85614C13.8276 7.53385 14.0889 7.27258 14.4112 7.27258H16.7454C17.0677 7.27258 17.329 7.53385 17.329 7.85614V10.1904C17.329 10.5127 17.0677 10.7739 16.7454 10.7739ZM14.9947 9.60681H16.1619V8.4397H14.9947V9.60681Z" fill="#25282B"/>
<path d="M21.4139 10.7739H19.0796C18.7574 10.7739 18.4961 10.5127 18.4961 10.1904V7.85614C18.4961 7.53385 18.7574 7.27258 19.0796 7.27258H21.4139C21.7362 7.27258 21.9974 7.53385 21.9974 7.85614V10.1904C21.9974 10.5127 21.7362 10.7739 21.4139 10.7739ZM19.6632 9.60681H20.8303V8.4397H19.6632V9.60681Z" fill="#25282B"/>
<path d="M16.7454 15.4424H14.4112C14.0889 15.4424 13.8276 15.1811 13.8276 14.8588V12.5246C13.8276 12.2023 14.0889 11.941 14.4112 11.941H16.7454C17.0677 11.941 17.329 12.2023 17.329 12.5246V14.8588C17.329 15.1811 17.0677 15.4424 16.7454 15.4424ZM14.9947 14.2753H16.1619V13.1082H14.9947V14.2753Z" fill="#25282B"/>
<path d="M21.4139 15.4424H19.0796C18.7574 15.4424 18.4961 15.1811 18.4961 14.8588V12.5246C18.4961 12.2023 18.7574 11.941 19.0796 11.941H21.4139C21.7362 11.941 21.9974 12.2023 21.9974 12.5246V14.8588C21.9974 15.1811 21.7362 15.4424 21.4139 15.4424ZM19.6632 14.2753H20.8303V13.1082H19.6632V14.2753Z" fill="#25282B"/>
<path d="M16.7454 20.1108H14.4112C14.0889 20.1108 13.8276 19.8496 13.8276 19.5273V17.1931C13.8276 16.8708 14.0889 16.6095 14.4112 16.6095H16.7454C17.0677 16.6095 17.329 16.8708 17.329 17.1931V19.5273C17.329 19.8496 17.0677 20.1108 16.7454 20.1108ZM14.9947 18.9437H16.1619V17.7766H14.9947V18.9437Z" fill="#25282B"/>
<path d="M21.4139 20.1108H19.0796C18.7574 20.1108 18.4961 19.8496 18.4961 19.5273V17.1931C18.4961 16.8708 18.7574 16.6095 19.0796 16.6095H21.4139C21.7362 16.6095 21.9974 16.8708 21.9974 17.1931V19.5273C21.9974 19.8496 21.7362 20.1108 21.4139 20.1108ZM19.6632 18.9437H20.8303V17.7766H19.6632V18.9437Z" fill="#25282B"/>
<path d="M21.9974 27.6971H20.8303V24.7793H14.9947V27.6971H13.8276V24.1957C13.8276 23.8734 14.0889 23.6122 14.4112 23.6122H21.4139C21.7362 23.6122 21.9974 23.8734 21.9974 24.1957V27.6971Z" fill="#25282B"/>
<path d="M6.82483 27.6971H5.65771V16.0259C5.65771 15.7036 5.91898 15.4424 6.24127 15.4424H12.6604V16.6095H6.82483V27.6971Z" fill="#25282B"/>
<path d="M7.99182 16.0259H6.82471V9.02325C6.82471 8.70096 7.08597 8.4397 7.40826 8.4397H12.6603V9.60681H7.99182V16.0259Z" fill="#25282B"/>
<path d="M11.4931 10.7739H7.4082V11.941H11.4931V10.7739Z" fill="#25282B"/>
<path d="M11.4931 13.1082H7.4082V14.2753H11.4931V13.1082Z" fill="#25282B"/>
<path d="M10.9097 17.7766H6.24121V18.9437H10.9097V17.7766Z" fill="#25282B"/>
<path d="M9.74255 20.1108H6.24121V21.278H9.74255V20.1108Z" fill="#25282B"/>
<path d="M9.74255 22.4451H6.24121V23.6122H9.74255V22.4451Z" fill="#25282B"/>
<path d="M26.6658 24.1958C25.3569 24.1958 24.3315 22.6575 24.3315 20.6945C24.3315 18.7314 25.3569 17.1931 26.6658 17.1931C27.9747 17.1931 29 18.7314 29 20.6945C29 22.6575 27.9747 24.1958 26.6658 24.1958ZM26.6658 18.3602C26.1149 18.3602 25.4987 19.3587 25.4987 20.6945C25.4987 22.0302 26.1149 23.0287 26.6658 23.0287C27.2166 23.0287 27.8329 22.0302 27.8329 20.6945C27.8329 19.3587 27.2166 18.3602 26.6658 18.3602Z" fill="#25282B"/>
<path d="M27.2491 19.5273H26.082V27.6971H27.2491V19.5273Z" fill="#25282B"/>
<path d="M3.32348 24.1958C2.01457 24.1958 0.989258 22.6575 0.989258 20.6945C0.989258 18.7314 2.01457 17.1931 3.32348 17.1931C4.6324 17.1931 5.65771 18.7314 5.65771 20.6945C5.65771 22.6575 4.6324 24.1958 3.32348 24.1958ZM3.32348 18.3602C2.77261 18.3602 2.15637 19.3587 2.15637 20.6945C2.15637 22.0302 2.77261 23.0287 3.32348 23.0287C3.87436 23.0287 4.49059 22.0302 4.49059 20.6945C4.49059 19.3587 3.87436 18.3602 3.32348 18.3602Z" fill="#25282B"/>
<path d="M3.90686 19.5273H2.73975V27.6971H3.90686V19.5273Z" fill="#25282B"/>
</svg>
