<svg width="35" height="29" viewBox="0 0 35 29" fill="none" xmlns="http://www.w3.org/2000/svg">
<path d="M31.551 28.2806H13.3438C12.9571 28.2806 12.6436 27.9671 12.6436 27.5804V16.376H14.0441V26.8801H30.8507V16.376H32.2512V27.5804C32.2512 27.9671 31.9377 28.2806 31.551 28.2806Z" fill="#25282B"/>
<path d="M33.6516 18.4768C33.5429 18.4769 33.4358 18.4517 33.3385 18.4033L22.4472 12.9572L11.5558 18.4068C11.3381 18.5155 11.0796 18.5035 10.8729 18.375C10.6663 18.2464 10.5412 18.0199 10.5425 17.7765V14.9754C10.5425 14.71 10.6923 14.4673 10.9298 14.3487L22.1341 8.74646C22.3312 8.64799 22.5631 8.64799 22.7602 8.74646L33.9646 14.3487C34.202 14.4673 34.3518 14.71 34.3518 14.9754V17.7765C34.3518 18.1633 34.0383 18.4768 33.6516 18.4768ZM22.4472 11.474C22.5558 11.4739 22.663 11.4991 22.7602 11.5476L32.9513 16.6435V15.4082L22.4472 10.1561L11.9431 15.4082V16.6435L22.1341 11.5476C22.2314 11.4991 22.3385 11.4739 22.4472 11.474Z" fill="#25282B"/>
<path d="M32.2512 14.2752H30.8507V10.0735H27.3493V11.4741H25.9487V9.37325C25.9487 8.9865 26.2623 8.67297 26.649 8.67297H31.5509C31.9377 8.67297 32.2512 8.9865 32.2512 9.37325V14.2752Z" fill="#25282B"/>
<path d="M29.4499 27.5804H28.0494V19.8774H24.548V27.5804H23.1475V19.1771C23.1475 18.7903 23.461 18.4768 23.8477 18.4768H28.7497C29.1364 18.4768 29.4499 18.7903 29.4499 19.1771V27.5804Z" fill="#25282B"/>
<path d="M21.7468 24.079H16.1446C15.7579 24.079 15.4443 23.7655 15.4443 23.3787V19.1771C15.4443 18.7903 15.7579 18.4768 16.1446 18.4768H21.7468C22.1336 18.4768 22.4471 18.7903 22.4471 19.1771V23.3787C22.4471 23.7655 22.1336 24.079 21.7468 24.079ZM16.8449 22.6785H21.0465V19.8774H16.8449V22.6785Z" fill="#25282B"/>
<path d="M21.7467 20.5776H16.1445V21.9782H21.7467V20.5776Z" fill="#25282B"/>
<path d="M28.7497 22.6785H27.3491V24.079H28.7497V22.6785Z" fill="#25282B"/>
<path d="M33.6518 26.8801H4.24023V28.2807H33.6518V26.8801Z" fill="#25282B"/>
<path d="M2.83951 26.8801H1.43896V28.2807H2.83951V26.8801Z" fill="#25282B"/>
<path d="M13.3435 21.9782H4.23995C2.54431 21.9793 1.09152 20.7653 0.791442 19.0964C0.491362 17.4276 1.43024 15.7835 3.02007 15.1939C2.1859 14.251 1.92216 12.9329 2.32929 11.7416C2.73643 10.5503 3.75176 9.66929 4.98854 9.43415C4.31691 8.58162 4.0801 7.46516 4.34781 6.41338C4.61552 5.36161 5.35729 4.49423 6.35478 4.06654C6.48643 2.11628 7.57956 0.269653 9.84215 0.269653C12.1047 0.269653 13.1979 2.11628 13.3295 4.06654C14.327 4.49423 15.0688 5.36161 15.3365 6.41338C15.6042 7.46516 15.3674 8.58162 14.6957 9.43415C16.0285 9.68652 17.0955 10.6859 17.4345 11.9993L16.0781 12.3494C15.8386 11.4218 15.0018 10.7737 14.0438 10.7738H11.943C11.5562 10.7738 11.2427 10.4602 11.2427 10.0735C11.2427 9.68675 11.5562 9.37322 11.943 9.37322C13.0015 9.37556 13.8956 8.58829 14.0272 7.53801C14.1589 6.48773 13.4868 5.50412 12.4605 5.2451C12.1426 5.16389 11.9237 4.8728 11.9339 4.54483C11.9339 4.51892 11.9416 4.44959 11.9451 4.42368C11.943 4.00352 11.8414 1.6702 9.84215 1.6702C7.84286 1.6702 7.74132 4.00352 7.74132 4.4713C7.74873 4.49387 7.75181 4.51762 7.75042 4.54133C7.76064 4.8693 7.54174 5.16039 7.22382 5.2416C6.19027 5.49467 5.51037 6.48204 5.64261 7.53788C5.77486 8.59371 6.67728 9.38289 7.74132 9.37322C8.12807 9.37322 8.4416 9.68675 8.4416 10.0735C8.4416 10.4602 8.12807 10.7738 7.74132 10.7738H5.6405C4.48024 10.7738 3.53967 11.7143 3.53967 12.8746C3.53967 14.0349 4.48024 14.9754 5.6405 14.9754C6.02725 14.9754 6.34077 15.2889 6.34077 15.6757C6.34077 16.0624 6.02725 16.376 5.6405 16.376H4.23995C3.07969 16.376 2.13912 17.3165 2.13912 18.4768C2.13912 19.637 3.07969 20.5776 4.23995 20.5776H13.3435V21.9782Z" fill="#25282B"/>
<path d="M9.14176 21.2778H7.74121V27.5803H9.14176V21.2778Z" fill="#25282B"/>
<path d="M11.943 21.2778H10.5425V27.5803H11.943V21.2778Z" fill="#25282B"/>
<path d="M17.5451 2.37048H16.1445V3.77103H17.5451V2.37048Z" fill="#25282B"/>
<path d="M22.4474 5.17163H21.0469V6.57218H22.4474V5.17163Z" fill="#25282B"/>
<path d="M28.7496 2.37048H18.9458V3.77103H28.7496V2.37048Z" fill="#25282B"/>
<path d="M33.6515 5.17163H23.8477V6.57218H33.6515V5.17163Z" fill="#25282B"/>
</svg>
