<svg width="18" height="15" viewBox="0 0 18 15" fill="none" xmlns="http://www.w3.org/2000/svg">
<path fill-rule="evenodd" clip-rule="evenodd" d="M15.827 0.961182H2.13152C0.956209 0.961182 0 1.87946 0 3.00815V12.5541C0 13.6828 0.956209 14.6011 2.13152 14.6011H15.827C17.0023 14.6011 17.9585 13.6828 17.9585 12.5541V3.00815C17.9585 1.87946 17.0023 0.961182 15.827 0.961182ZM15.827 12.7939H2.13152C1.95876 12.7939 1.80724 12.6819 1.80724 12.5541V4.27046L8.00135 9.49986C8.12834 9.6071 8.28982 9.66613 8.4561 9.66613L9.50221 9.66618C9.6684 9.66618 9.82997 9.6071 9.95701 9.49986L16.1514 4.27027V12.5542C16.1513 12.6819 15.9997 12.7939 15.827 12.7939ZM2.95473 2.76833L8.97927 7.87177L15.0038 2.76833H2.95473Z" fill="#E76069"/>
</svg>
