<svg width="18" height="16" viewBox="0 0 18 16" fill="none" xmlns="http://www.w3.org/2000/svg">
<path fill-rule="evenodd" clip-rule="evenodd" d="M18 2.64812C17.3306 2.94175 16.6174 3.13637 15.8737 3.23087C16.6388 2.77412 17.2226 2.05637 17.4971 1.19125C16.7839 1.6165 15.9964 1.91687 15.1571 2.0845C14.4799 1.36337 13.5146 0.916748 12.4616 0.916748C10.4186 0.916748 8.77388 2.575 8.77388 4.60787C8.77388 4.90037 8.79862 5.18162 8.85938 5.44937C5.7915 5.29975 3.07687 3.82937 1.25325 1.5895C0.934875 2.14187 0.748125 2.77412 0.748125 3.45475C0.748125 4.73275 1.40625 5.86562 2.38725 6.5215C1.79437 6.51025 1.21275 6.33812 0.72 6.067C0.72 6.07825 0.72 6.09287 0.72 6.1075C0.72 7.90075 1.99913 9.39025 3.6765 9.73337C3.37613 9.8155 3.04875 9.85487 2.709 9.85487C2.47275 9.85487 2.23425 9.84137 2.01038 9.79187C2.4885 11.2532 3.84525 12.3276 5.4585 12.3625C4.203 13.3446 2.60888 13.9364 0.883125 13.9364C0.5805 13.9364 0.29025 13.9229 0 13.8857C1.63462 14.9399 3.57187 15.5417 5.661 15.5417C12.4515 15.5417 16.164 9.91675 16.164 5.041C16.164 4.87787 16.1584 4.72037 16.1505 4.564C16.8829 4.04425 17.4982 3.39512 18 2.64812Z" fill="#03A9F4"/>
</svg>
